<svg width="256" height="256" viewBox="0 0 256 256" fill="none" xmlns="http://www.w3.org/2000/svg">
<circle cx="128" cy="128" r="128" fill="#E8567D"/>
<path d="M83.5203 115.364C83.5203 109.024 85.142 102.832 88.2381 97.2296L93.9879 87.0569C94.2828 86.3198 95.0199 86.0249 95.7571 86.0249H111.237C111.974 86.0249 112.712 86.3198 113.006 87.0569L118.756 97.2296C122 102.685 123.621 109.024 123.621 115.364V116.838H83.5203V115.364Z" fill="#FFFF99"/>
<path d="M110.353 81.7494H96.9365C95.7571 81.7494 94.8725 80.8648 94.8725 79.6854V73.4933C94.8725 72.3138 95.7571 71.4293 96.9365 71.4293H110.353C111.532 71.4293 112.417 72.3138 112.417 73.4933V79.6854C112.417 80.8648 111.385 81.7494 110.353 81.7494Z" fill="#FFFF99"/>
<path d="M171.979 116.838H136.743C137.185 113.447 137.775 109.761 138.659 105.781C144.999 103.274 153.108 102.685 155.909 102.832C157.973 102.832 159.889 101.21 159.889 98.9988C159.889 96.7873 158.268 95.0182 156.056 95.0182C155.614 95.0182 148.242 94.8707 140.429 96.9348C140.429 96.9348 140.429 96.9348 140.429 96.7873C141.461 92.0696 142.493 87.6466 143.672 83.666C150.012 81.1597 157.825 80.7174 160.774 80.8648C162.985 81.0123 164.755 79.2431 164.755 77.0316C164.755 74.8202 163.133 73.051 160.921 73.051C160.479 73.051 153.697 72.9036 146.326 74.6727C151.044 61.404 156.793 55.2119 166.671 59.1925C181.119 64.7949 179.498 82.0443 173.306 109.761C173.011 112.268 172.421 114.626 171.979 116.838Z" fill="#FFFF99"/>
<path d="M74.0848 124.799H181.709C187.459 124.799 191.882 130.107 190.85 135.709L180.677 190.553C179.793 194.976 176.107 198.072 171.536 198.072H84.11C79.6871 198.072 75.8539 194.829 74.9693 190.553L64.7966 135.709C63.912 129.959 68.1875 124.799 74.0848 124.799ZM150.749 175.958C150.749 178.759 153.108 181.118 155.909 181.118C158.71 181.118 161.069 178.759 161.069 175.958V146.914C161.069 144.113 158.71 141.754 155.909 141.754C153.108 141.754 150.749 144.113 150.749 146.914V175.958ZM122.737 175.958C122.737 178.759 125.096 181.118 127.897 181.118C130.698 181.118 133.057 178.759 133.057 175.958V146.914C133.057 144.113 130.698 141.754 127.897 141.754C125.096 141.754 122.737 144.113 122.737 146.914V175.958ZM94.7251 175.958C94.7251 178.759 97.0839 181.118 99.8851 181.118C102.686 181.118 105.045 178.759 105.045 175.958V146.914C105.045 144.113 102.686 141.754 99.8851 141.754C97.0839 141.754 94.7251 144.113 94.7251 146.914V175.958Z" fill="#FFFF99"/>
</svg>
